<?xml version="1.0" encoding="utf-8"?>
<!-- Generator: Adobe Illustrator 25.2.0, SVG Export Plug-In . SVG Version: 6.00 Build 0)  -->
<svg version="1.1" id="Layer_1" xmlns="http://www.w3.org/2000/svg" xmlns:xlink="http://www.w3.org/1999/xlink" x="0px" y="0px"
	 viewBox="0 0 1920 1000" style="enable-background:new 0 0 1920 1000;" xml:space="preserve">
<style type="text/css">
	.st0{fill:#FDF2DC;}
	.st1{opacity:9.000000e-02;fill:#CCAE8C;enable-background:new    ;}
	
		.st2{opacity:9.000000e-02;fill:#CCAE8C;stroke:url(#SVGID_1_);stroke-width:12;stroke-miterlimit:10;stroke-opacity:6.000000e-02;enable-background:new    ;}
	.st3{opacity:0.4;}
	.st4{fill:#CCAE8C;}
	.st5{fill:none;stroke:#CDAE8C;stroke-miterlimit:10;}
	.st6{fill:none;stroke:#CCAE8C;stroke-miterlimit:10;}
	.st7{opacity:0.8;fill:none;stroke:#CCAE8C;stroke-miterlimit:10;enable-background:new    ;}
</style>
<path class="st0" d="M0,0h1920v1000H0V0z"/>
<g>
	<path class="st1" d="M0,334.6c155.3-14.4,285.6,43,419.8,141.6c148.6,109,366.6,178.3,643.6,85.5C1374,457.6,1471.1,225,1920,244.9
		V0h-447.2c0,0-232.1,29.9-398.9,204.6c-173.2,181.3-193.4,213.3-408.4,186C450.6,363.3,368.6,213.9,0,235.5V334.6z"/>
	
		<linearGradient id="SVGID_1_" gradientUnits="userSpaceOnUse" x1="259.6661" y1="-23.1641" x2="135.1661" y2="-48.6642" gradientTransform="matrix(1 0 0 1 0 156)">
		<stop  offset="0" style="stop-color:#F0D8FD"/>
		<stop  offset="1" style="stop-color:#08B8E1"/>
	</linearGradient>
	<path class="st2" d="M243.3,118.7c0-29.1-23.6-52.7-52.7-52.7S138,89.6,138,118.7s23.6,52.7,52.7,52.7S243.3,147.8,243.3,118.7z"/>
	<g class="st3">
		<path class="st4" d="M265.4,612.7c-0.3,0-0.6,0.1-0.8,0.2c-0.2,0.2-0.4,0.4-0.5,0.6c-0.1,0.3-0.1,0.5-0.1,0.8
			c0.1,0.3,0.2,0.5,0.4,0.7c0.2,0.2,0.5,0.3,0.7,0.4c0.3,0.1,0.6,0,0.8-0.1c0.3-0.1,0.5-0.3,0.6-0.5c0.2-0.2,0.2-0.5,0.2-0.8
			c0-0.4-0.1-0.7-0.4-1C266.2,612.9,265.8,612.7,265.4,612.7z"/>
		<path class="st4" d="M265.4,589.5c-0.3,0-0.6,0.1-0.8,0.2c-0.2,0.2-0.4,0.4-0.5,0.6c-0.1,0.3-0.1,0.5-0.1,0.8
			c0.1,0.3,0.2,0.5,0.4,0.7c0.2,0.2,0.4,0.3,0.7,0.4c0.3,0.1,0.6,0,0.8-0.1c0.3-0.1,0.5-0.3,0.6-0.5c0.2-0.2,0.2-0.5,0.2-0.8
			c0-0.4-0.1-0.7-0.4-1C266.2,589.7,265.8,589.5,265.4,589.5z"/>
		<path class="st4" d="M265.4,566.4c-0.3,0-0.6,0.1-0.8,0.2c-0.2,0.2-0.4,0.4-0.5,0.6c-0.1,0.3-0.1,0.5-0.1,0.8
			c0.1,0.3,0.2,0.5,0.4,0.7c0.2,0.2,0.5,0.3,0.7,0.4c0.3,0.1,0.6,0,0.8-0.1c0.3-0.1,0.5-0.3,0.6-0.5c0.2-0.2,0.2-0.5,0.2-0.8
			c0-0.4-0.1-0.7-0.4-1C266.2,566.5,265.8,566.4,265.4,566.4z"/>
		<path class="st4" d="M265.4,543.2c-0.3,0-0.6,0.1-0.8,0.2c-0.2,0.2-0.4,0.4-0.5,0.6c-0.1,0.3-0.1,0.5-0.1,0.8
			c0.1,0.3,0.2,0.5,0.4,0.7s0.4,0.3,0.7,0.4c0.3,0.1,0.6,0,0.8-0.1c0.3-0.1,0.5-0.3,0.6-0.5c0.2-0.2,0.2-0.5,0.2-0.8
			c0-0.4-0.1-0.7-0.4-1C266.2,543.3,265.8,543.2,265.4,543.2z"/>
		<path class="st4" d="M265.4,520c-0.3,0-0.6,0.1-0.8,0.2c-0.2,0.2-0.4,0.4-0.5,0.6c-0.1,0.3-0.1,0.5-0.1,0.8
			c0.1,0.3,0.2,0.5,0.4,0.7s0.4,0.3,0.7,0.4c0.3,0.1,0.6,0,0.8-0.1c0.3-0.1,0.5-0.3,0.6-0.5c0.2-0.2,0.2-0.5,0.2-0.8
			c0-0.4-0.1-0.7-0.4-1C266.2,520.1,265.8,520,265.4,520z"/>
		<path class="st4" d="M286.8,612.7c-0.2,0-0.4,0-0.6,0.1s-0.4,0.2-0.5,0.3s-0.3,0.3-0.3,0.5c-0.1,0.2-0.1,0.4-0.1,0.6
			c0,0.2,0,0.4,0.1,0.6c0.1,0.2,0.2,0.3,0.3,0.5c0.1,0.1,0.3,0.2,0.5,0.3s0.4,0.1,0.6,0.1c0.4,0,0.7-0.2,0.9-0.5
			c0.2-0.3,0.4-0.6,0.4-1s-0.1-0.7-0.4-1C287.5,612.9,287.2,612.8,286.8,612.7z"/>
		<path class="st4" d="M286.8,589.5c-0.3,0-0.5,0.1-0.8,0.2c-0.2,0.2-0.4,0.4-0.5,0.6c-0.1,0.3-0.1,0.5-0.1,0.8
			c0.1,0.3,0.2,0.5,0.4,0.7c0.2,0.2,0.4,0.3,0.7,0.4c0.3,0.1,0.6,0,0.8-0.1c0.3-0.1,0.5-0.3,0.6-0.5c0.2-0.2,0.2-0.5,0.2-0.8
			c0-0.4-0.2-0.7-0.4-1C287.6,589.7,287.2,589.6,286.8,589.5z"/>
		<path class="st4" d="M286.8,566.4c-0.3,0-0.6,0.1-0.8,0.2c-0.2,0.2-0.4,0.4-0.5,0.6c-0.1,0.3-0.1,0.5-0.1,0.8
			c0.1,0.3,0.2,0.5,0.4,0.7c0.2,0.2,0.5,0.3,0.7,0.4c0.3,0.1,0.6,0,0.8-0.1c0.3-0.1,0.5-0.3,0.6-0.5c0.2-0.2,0.2-0.5,0.2-0.8
			c0-0.4-0.2-0.7-0.4-1C287.6,566.5,287.2,566.4,286.8,566.4z"/>
		<path class="st4" d="M286.8,543.2c-0.3,0-0.5,0.1-0.8,0.2c-0.2,0.2-0.4,0.4-0.5,0.6c-0.1,0.3-0.1,0.5-0.1,0.8
			c0.1,0.3,0.2,0.5,0.4,0.7c0.2,0.2,0.4,0.3,0.7,0.4c0.3,0.1,0.6,0,0.8-0.1c0.3-0.1,0.5-0.3,0.6-0.5c0.2-0.2,0.2-0.5,0.2-0.8
			c0-0.4-0.2-0.7-0.4-1C287.6,543.3,287.2,543.2,286.8,543.2z"/>
		<path class="st4" d="M286.8,520c-0.3,0-0.5,0.1-0.8,0.2c-0.2,0.2-0.4,0.4-0.5,0.6c-0.1,0.3-0.1,0.5-0.1,0.8
			c0.1,0.3,0.2,0.5,0.4,0.7c0.2,0.2,0.4,0.3,0.7,0.4c0.3,0.1,0.6,0,0.8-0.1c0.3-0.1,0.5-0.3,0.6-0.5c0.2-0.2,0.2-0.5,0.2-0.8
			c0-0.4-0.2-0.7-0.4-1C287.6,520.2,287.2,520,286.8,520z"/>
		<path class="st4" d="M308.2,612.7c-0.3,0-0.6,0.1-0.8,0.2c-0.2,0.2-0.4,0.4-0.5,0.6c-0.1,0.3-0.1,0.5-0.1,0.8
			c0.1,0.3,0.2,0.5,0.4,0.7c0.2,0.2,0.5,0.3,0.7,0.4c0.3,0.1,0.6,0,0.8-0.1s0.5-0.3,0.6-0.5c0.2-0.2,0.2-0.5,0.2-0.8
			c0-0.4-0.1-0.7-0.4-1S308.6,612.7,308.2,612.7z"/>
		<path class="st4" d="M308.2,589.5c-0.3,0-0.6,0.1-0.8,0.2c-0.2,0.2-0.4,0.4-0.5,0.6c-0.1,0.3-0.1,0.5-0.1,0.8
			c0.1,0.3,0.2,0.5,0.4,0.7c0.2,0.2,0.4,0.3,0.7,0.4c0.3,0.1,0.6,0,0.8-0.1c0.3-0.1,0.5-0.3,0.6-0.5c0.2-0.2,0.2-0.5,0.2-0.8
			c0-0.4-0.1-0.7-0.4-1C308.9,589.7,308.6,589.5,308.2,589.5z"/>
		<path class="st4" d="M308.2,566.4c-0.3,0-0.6,0.1-0.8,0.2c-0.2,0.2-0.4,0.4-0.5,0.6c-0.1,0.3-0.1,0.5-0.1,0.8
			c0.1,0.3,0.2,0.5,0.4,0.7c0.2,0.2,0.5,0.3,0.7,0.4c0.3,0.1,0.6,0,0.8-0.1c0.3-0.1,0.5-0.3,0.6-0.5c0.2-0.2,0.2-0.5,0.2-0.8
			c0-0.4-0.1-0.7-0.4-1C308.9,566.5,308.6,566.4,308.2,566.4z"/>
		<path class="st4" d="M308.2,543.2c-0.3,0-0.6,0.1-0.8,0.2c-0.2,0.2-0.4,0.4-0.5,0.6c-0.1,0.3-0.1,0.5-0.1,0.8
			c0.1,0.3,0.2,0.5,0.4,0.7s0.4,0.3,0.7,0.4c0.3,0.1,0.6,0,0.8-0.1c0.3-0.1,0.5-0.3,0.6-0.5c0.2-0.2,0.2-0.5,0.2-0.8
			c0-0.4-0.1-0.7-0.4-1C308.9,543.3,308.6,543.2,308.2,543.2z"/>
		<path class="st4" d="M308.2,520c-0.3,0-0.6,0.1-0.8,0.2c-0.2,0.2-0.4,0.4-0.5,0.6c-0.1,0.3-0.1,0.5-0.1,0.8
			c0.1,0.3,0.2,0.5,0.4,0.7s0.4,0.3,0.7,0.4c0.3,0.1,0.6,0,0.8-0.1c0.3-0.1,0.5-0.3,0.6-0.5c0.2-0.2,0.2-0.5,0.2-0.8
			c0-0.4-0.1-0.7-0.4-1C308.9,520.1,308.6,520,308.2,520z"/>
		<path class="st4" d="M329.6,612.7c-0.3,0-0.6,0.1-0.8,0.2c-0.2,0.2-0.4,0.4-0.5,0.6c-0.1,0.3-0.1,0.5-0.1,0.8
			c0.1,0.3,0.2,0.5,0.4,0.7c0.2,0.2,0.5,0.3,0.7,0.4c0.3,0.1,0.6,0,0.8-0.1s0.5-0.3,0.6-0.5c0.2-0.2,0.2-0.5,0.2-0.8
			c0-0.4-0.1-0.7-0.4-1C330.3,612.9,330,612.7,329.6,612.7z"/>
		<path class="st4" d="M329.6,589.5c-0.3,0-0.6,0.1-0.8,0.2c-0.2,0.2-0.4,0.4-0.5,0.6c-0.1,0.3-0.1,0.5-0.1,0.8
			c0.1,0.3,0.2,0.5,0.4,0.7c0.2,0.2,0.4,0.3,0.7,0.4c0.3,0.1,0.6,0,0.8-0.1c0.3-0.1,0.5-0.3,0.6-0.5c0.2-0.2,0.2-0.5,0.2-0.8
			c0-0.4-0.1-0.7-0.4-1C330.3,589.7,330,589.5,329.6,589.5z"/>
		<path class="st4" d="M329.6,566.4c-0.3,0-0.6,0.1-0.8,0.2c-0.2,0.2-0.4,0.4-0.5,0.6s-0.1,0.5-0.1,0.8c0.1,0.3,0.2,0.5,0.4,0.7
			c0.2,0.2,0.5,0.3,0.7,0.4c0.3,0.1,0.6,0,0.8-0.1s0.5-0.3,0.6-0.5c0.2-0.2,0.2-0.5,0.2-0.8c0-0.4-0.1-0.7-0.4-1
			C330.3,566.5,330,566.4,329.6,566.4z"/>
		<path class="st4" d="M329.6,543.2c-0.3,0-0.6,0.1-0.8,0.2c-0.2,0.2-0.4,0.4-0.5,0.6c-0.1,0.3-0.1,0.5-0.1,0.8
			c0.1,0.3,0.2,0.5,0.4,0.7c0.2,0.2,0.4,0.3,0.7,0.4c0.3,0.1,0.6,0,0.8-0.1c0.3-0.1,0.5-0.3,0.6-0.5c0.2-0.2,0.2-0.5,0.2-0.8
			c0-0.4-0.1-0.7-0.4-1C330.3,543.3,330,543.2,329.6,543.2z"/>
		<path class="st4" d="M329.6,520c-0.3,0-0.6,0.1-0.8,0.2c-0.2,0.2-0.4,0.4-0.5,0.6c-0.1,0.3-0.1,0.5-0.1,0.8
			c0.1,0.3,0.2,0.5,0.4,0.7c0.2,0.2,0.4,0.3,0.7,0.4c0.3,0.1,0.6,0,0.8-0.1c0.3-0.1,0.5-0.3,0.6-0.5c0.2-0.2,0.2-0.5,0.2-0.8
			c0-0.4-0.1-0.7-0.4-1C330.3,520.1,330,520,329.6,520z"/>
		<path class="st4" d="M351,612.7c-0.3,0-0.6,0.1-0.8,0.2c-0.2,0.2-0.4,0.4-0.5,0.6c-0.1,0.3-0.1,0.5-0.1,0.8s0.2,0.5,0.4,0.7
			c0.2,0.2,0.5,0.3,0.7,0.4c0.3,0.1,0.6,0,0.8-0.1c0.3-0.1,0.5-0.3,0.6-0.5c0.2-0.2,0.2-0.5,0.2-0.8c0-0.4-0.1-0.7-0.4-1
			C351.7,612.9,351.3,612.7,351,612.7z"/>
		<path class="st4" d="M351,589.5c-0.3,0-0.6,0.1-0.8,0.2c-0.2,0.2-0.4,0.4-0.5,0.6c-0.1,0.3-0.1,0.5-0.1,0.8
			c0.1,0.3,0.2,0.5,0.4,0.7c0.2,0.2,0.4,0.3,0.7,0.4c0.3,0.1,0.6,0,0.8-0.1c0.3-0.1,0.5-0.3,0.6-0.5c0.2-0.2,0.2-0.5,0.2-0.8
			c0-0.2,0-0.4-0.1-0.5c-0.1-0.2-0.2-0.3-0.3-0.5c-0.1-0.1-0.3-0.2-0.5-0.3C351.3,589.6,351.2,589.5,351,589.5z"/>
		<path class="st4" d="M351,566.4c-0.4,0-0.7,0.2-0.9,0.5c-0.2,0.3-0.4,0.6-0.4,1s0.1,0.7,0.4,1c0.2,0.3,0.6,0.4,0.9,0.5
			c0.2,0,0.4,0,0.6-0.1s0.4-0.2,0.5-0.3s0.3-0.3,0.3-0.5c0.1-0.2,0.1-0.4,0.1-0.6c0-0.2,0-0.4-0.1-0.6c-0.1-0.2-0.2-0.3-0.3-0.5
			s-0.3-0.2-0.5-0.3C351.4,566.4,351.2,566.3,351,566.4z"/>
		<path class="st4" d="M351,543.2c-0.3,0-0.6,0.1-0.8,0.2c-0.2,0.2-0.4,0.4-0.5,0.6c-0.1,0.3-0.1,0.5-0.1,0.8
			c0.1,0.3,0.2,0.5,0.4,0.7c0.2,0.2,0.4,0.3,0.7,0.4c0.3,0.1,0.6,0,0.8-0.1c0.3-0.1,0.5-0.3,0.6-0.5c0.2-0.2,0.2-0.5,0.2-0.8
			c0-0.2,0-0.4-0.1-0.5c-0.1-0.2-0.2-0.3-0.3-0.5c-0.1-0.1-0.3-0.2-0.5-0.3S351.2,543.2,351,543.2z"/>
		<path class="st4" d="M351,520c-0.3,0-0.6,0.1-0.8,0.2c-0.2,0.2-0.4,0.4-0.5,0.6c-0.1,0.3-0.1,0.5-0.1,0.8c0.1,0.3,0.2,0.5,0.4,0.7
			c0.2,0.2,0.4,0.3,0.7,0.4c0.3,0.1,0.6,0,0.8-0.1c0.3-0.1,0.5-0.3,0.6-0.5c0.2-0.2,0.2-0.5,0.2-0.8c0-0.2,0-0.4-0.1-0.5
			c-0.1-0.2-0.2-0.3-0.3-0.5c-0.1-0.1-0.3-0.2-0.5-0.3S351.2,520,351,520z"/>
	</g>
	<g>
		<path class="st4" d="M1796.4,354.7c-0.3,0-0.6,0.1-0.8,0.2c-0.2,0.2-0.4,0.4-0.5,0.6c-0.1,0.3-0.1,0.5-0.1,0.8s0.2,0.5,0.4,0.7
			c0.2,0.2,0.4,0.3,0.7,0.4c0.3,0.1,0.5,0,0.8-0.1s0.5-0.3,0.6-0.5c0.2-0.2,0.2-0.5,0.2-0.8c0-0.4-0.2-0.7-0.4-1
			C1797.2,354.9,1796.8,354.7,1796.4,354.7z"/>
		<path class="st4" d="M1796.4,331.6c-0.3,0-0.6,0.1-0.8,0.2s-0.4,0.4-0.5,0.6c-0.1,0.3-0.1,0.5-0.1,0.8s0.2,0.5,0.4,0.7
			c0.2,0.2,0.4,0.3,0.7,0.4c0.3,0.1,0.5,0,0.8-0.1s0.5-0.3,0.6-0.5c0.2-0.2,0.2-0.5,0.2-0.8c0-0.4-0.2-0.7-0.4-1
			C1797.2,331.7,1796.8,331.6,1796.4,331.6z"/>
		<path class="st4" d="M1796.4,308.4c-0.3,0-0.6,0.1-0.8,0.2s-0.4,0.4-0.5,0.6s-0.1,0.5-0.1,0.8s0.2,0.5,0.4,0.7
			c0.2,0.2,0.4,0.3,0.7,0.4c0.3,0.1,0.5,0,0.8-0.1s0.5-0.3,0.6-0.5c0.2-0.2,0.2-0.5,0.2-0.8c0-0.4-0.2-0.7-0.4-1
			C1797.2,308.5,1796.8,308.4,1796.4,308.4z"/>
		<path class="st4" d="M1796.4,285.2c-0.3,0-0.6,0.1-0.8,0.2c-0.2,0.2-0.4,0.4-0.5,0.6s-0.1,0.5-0.1,0.8s0.2,0.5,0.4,0.7
			c0.2,0.2,0.4,0.3,0.7,0.4c0.3,0.1,0.6,0,0.8-0.1s0.5-0.3,0.6-0.5c0.2-0.2,0.2-0.5,0.2-0.8c0-0.4-0.2-0.7-0.4-1
			C1797.2,285.3,1796.8,285.2,1796.4,285.2z"/>
		<path class="st4" d="M1796.4,262c-0.3,0-0.6,0.1-0.8,0.2c-0.2,0.2-0.4,0.4-0.5,0.6c-0.1,0.3-0.1,0.5-0.1,0.8s0.2,0.5,0.4,0.7
			c0.2,0.2,0.4,0.3,0.7,0.4c0.3,0.1,0.5,0,0.8-0.1s0.5-0.3,0.6-0.5c0.2-0.2,0.2-0.5,0.2-0.8c0-0.4-0.2-0.7-0.4-1
			C1797.2,262.2,1796.8,262,1796.4,262z"/>
		<path class="st4" d="M1817.8,354.7c-0.3,0-0.5,0.1-0.8,0.3c-0.2,0.2-0.4,0.4-0.5,0.6c-0.1,0.3-0.1,0.5-0.1,0.8
			c0.1,0.3,0.2,0.5,0.4,0.7c0.2,0.2,0.4,0.3,0.7,0.4c0.3,0,0.6,0,0.8-0.1c0.2-0.1,0.5-0.3,0.6-0.5s0.2-0.5,0.2-0.8
			c0-0.2,0-0.4-0.1-0.6s-0.2-0.3-0.3-0.5c-0.1-0.1-0.3-0.2-0.5-0.3C1818.2,354.7,1818,354.7,1817.8,354.7z"/>
		<path class="st4" d="M1817.8,331.6c-0.3,0-0.5,0.1-0.8,0.3c-0.2,0.2-0.4,0.4-0.5,0.6c-0.1,0.3-0.1,0.5-0.1,0.8
			c0.1,0.3,0.2,0.5,0.4,0.7c0.2,0.2,0.4,0.3,0.7,0.4c0.3,0.1,0.6,0,0.8-0.1c0.2-0.1,0.5-0.3,0.6-0.5s0.2-0.5,0.2-0.8
			c0-0.2,0-0.4-0.1-0.6s-0.2-0.3-0.3-0.5c-0.1-0.1-0.3-0.2-0.5-0.3C1818.2,331.6,1818,331.5,1817.8,331.6z"/>
		<path class="st4" d="M1817.8,308.4c-0.3,0-0.5,0.1-0.8,0.3c-0.2,0.2-0.4,0.4-0.5,0.6c-0.1,0.3-0.1,0.5-0.1,0.8
			c0.1,0.3,0.2,0.5,0.4,0.7c0.2,0.2,0.4,0.3,0.7,0.4c0.3,0,0.6,0,0.8-0.1c0.2-0.1,0.5-0.3,0.6-0.5s0.2-0.5,0.2-0.8
			c0-0.2,0-0.4-0.1-0.6s-0.2-0.3-0.3-0.5c-0.1-0.1-0.3-0.2-0.5-0.3C1818.2,308.4,1818,308.4,1817.8,308.4z"/>
		<path class="st4" d="M1817.8,285.2c-0.3,0-0.6,0.1-0.8,0.3c-0.2,0.2-0.4,0.4-0.5,0.6c-0.1,0.3-0.1,0.5-0.1,0.8
			c0.1,0.3,0.2,0.5,0.4,0.7c0.2,0.2,0.5,0.3,0.7,0.4c0.3,0,0.6,0,0.8-0.1c0.2-0.1,0.5-0.3,0.6-0.5c0.2-0.2,0.2-0.5,0.2-0.8
			c0-0.2,0-0.4-0.1-0.6s-0.2-0.3-0.3-0.5c-0.1-0.1-0.3-0.2-0.5-0.3C1818.2,285.2,1818,285.2,1817.8,285.2z"/>
		<path class="st4" d="M1817.8,262c-0.3,0-0.5,0.1-0.8,0.3c-0.2,0.2-0.4,0.4-0.5,0.6c-0.1,0.3-0.1,0.5-0.1,0.8
			c0.1,0.3,0.2,0.5,0.4,0.7c0.2,0.2,0.4,0.3,0.7,0.4c0.3,0,0.6,0,0.8-0.1c0.2-0.1,0.5-0.3,0.6-0.5s0.2-0.5,0.2-0.8
			c0-0.2,0-0.4-0.1-0.6s-0.2-0.3-0.3-0.5c-0.1-0.1-0.3-0.2-0.5-0.3C1818.2,262,1818,262,1817.8,262z"/>
		<path class="st4" d="M1839.2,354.7c-0.3,0-0.5,0.1-0.8,0.2c-0.2,0.2-0.4,0.4-0.5,0.6c-0.1,0.3-0.1,0.5-0.1,0.8
			c0.1,0.3,0.2,0.5,0.4,0.7c0.2,0.2,0.5,0.3,0.7,0.4c0.3,0.1,0.6,0,0.8-0.1c0.3-0.1,0.5-0.3,0.6-0.5s0.2-0.5,0.2-0.8
			c0-0.4-0.2-0.7-0.4-1C1839.9,354.9,1839.6,354.7,1839.2,354.7z"/>
		<path class="st4" d="M1839.2,331.6c-0.3,0-0.5,0.1-0.8,0.2c-0.2,0.2-0.4,0.4-0.5,0.6c-0.1,0.3-0.1,0.5-0.1,0.8
			c0.1,0.3,0.2,0.5,0.4,0.7c0.2,0.2,0.5,0.3,0.7,0.4c0.3,0.1,0.6,0,0.8-0.1s0.5-0.3,0.6-0.5c0.2-0.2,0.2-0.5,0.2-0.8
			c0-0.4-0.2-0.7-0.4-1C1839.9,331.7,1839.6,331.6,1839.2,331.6z"/>
		<path class="st4" d="M1839.2,308.4c-0.3,0-0.5,0.1-0.8,0.2c-0.2,0.2-0.4,0.4-0.5,0.6c-0.1,0.3-0.1,0.5-0.1,0.8
			c0.1,0.3,0.2,0.5,0.4,0.7c0.2,0.2,0.5,0.3,0.7,0.4c0.3,0.1,0.6,0,0.8-0.1s0.5-0.3,0.6-0.5c0.2-0.2,0.2-0.5,0.2-0.8
			c0-0.4-0.2-0.7-0.4-1C1839.9,308.5,1839.6,308.4,1839.2,308.4z"/>
		<path class="st4" d="M1839.2,285.2c-0.3,0-0.6,0.1-0.8,0.2c-0.2,0.2-0.4,0.4-0.5,0.6s-0.1,0.5-0.1,0.8c0.1,0.3,0.2,0.5,0.4,0.7
			c0.2,0.2,0.5,0.3,0.7,0.4c0.3,0.1,0.6,0,0.8-0.1s0.5-0.3,0.6-0.5c0.2-0.2,0.2-0.5,0.2-0.8c0-0.4-0.2-0.7-0.4-1
			C1839.9,285.3,1839.6,285.2,1839.2,285.2z"/>
		<path class="st4" d="M1839.2,262c-0.3,0-0.5,0.1-0.8,0.2c-0.2,0.2-0.4,0.4-0.5,0.6c-0.1,0.3-0.1,0.5-0.1,0.8
			c0.1,0.3,0.2,0.5,0.4,0.7c0.2,0.2,0.5,0.3,0.7,0.4c0.3,0.1,0.6,0,0.8-0.1c0.3-0.1,0.5-0.3,0.6-0.5c0.2-0.2,0.2-0.5,0.2-0.8
			c0-0.4-0.2-0.7-0.4-1C1839.9,262.1,1839.6,262,1839.2,262z"/>
		<path class="st4" d="M1860.6,354.7c-0.3,0-0.5,0.1-0.8,0.2c-0.2,0.2-0.4,0.4-0.5,0.6c-0.1,0.3-0.1,0.5-0.1,0.8
			c0.1,0.3,0.2,0.5,0.4,0.7c0.2,0.2,0.4,0.3,0.7,0.4c0.3,0.1,0.6,0,0.8-0.1s0.5-0.3,0.6-0.5c0.2-0.2,0.2-0.5,0.2-0.8
			c0-0.2,0-0.4-0.1-0.5c-0.1-0.2-0.2-0.3-0.3-0.5c-0.1-0.1-0.3-0.2-0.5-0.3C1860.9,354.8,1860.8,354.7,1860.6,354.7z"/>
		<path class="st4" d="M1860.6,331.6c-0.3,0-0.5,0.1-0.8,0.2c-0.2,0.2-0.4,0.4-0.5,0.6c-0.1,0.3-0.1,0.5-0.1,0.8
			c0.1,0.3,0.2,0.5,0.4,0.7c0.2,0.2,0.4,0.3,0.7,0.4c0.3,0.1,0.6,0,0.8-0.1s0.5-0.3,0.6-0.5c0.2-0.2,0.2-0.5,0.2-0.8
			c0-0.2,0-0.4-0.1-0.5c-0.1-0.2-0.2-0.3-0.3-0.5c-0.1-0.1-0.3-0.2-0.5-0.3C1860.9,331.6,1860.8,331.5,1860.6,331.6z"/>
		<path class="st4" d="M1860.6,308.4c-0.3,0-0.5,0.1-0.8,0.2c-0.2,0.2-0.4,0.4-0.5,0.6c-0.1,0.3-0.1,0.5-0.1,0.8
			c0.1,0.3,0.2,0.5,0.4,0.7c0.2,0.2,0.4,0.3,0.7,0.4c0.3,0.1,0.6,0,0.8-0.1s0.5-0.3,0.6-0.5c0.2-0.2,0.2-0.5,0.2-0.8
			c0-0.2,0-0.4-0.1-0.5c-0.1-0.2-0.2-0.3-0.3-0.5s-0.3-0.2-0.5-0.3C1860.9,308.4,1860.8,308.4,1860.6,308.4z"/>
		<path class="st4" d="M1860.6,285.2c-0.4,0-0.7,0.2-0.9,0.5c-0.2,0.3-0.4,0.6-0.4,1s0.1,0.7,0.4,1c0.2,0.3,0.6,0.4,0.9,0.5
			c0.2,0,0.4,0,0.6-0.1s0.4-0.2,0.5-0.3c0.2-0.1,0.3-0.3,0.3-0.5c0.1-0.2,0.1-0.4,0.1-0.6s0-0.4-0.1-0.6s-0.2-0.3-0.3-0.5
			c-0.1-0.1-0.3-0.2-0.5-0.3C1861,285.2,1860.8,285.2,1860.6,285.2z"/>
		<path class="st4" d="M1860.6,262c-0.3,0-0.5,0.1-0.8,0.2c-0.2,0.2-0.4,0.4-0.5,0.6c-0.1,0.3-0.1,0.5-0.1,0.8
			c0.1,0.3,0.2,0.5,0.4,0.7c0.2,0.2,0.4,0.3,0.7,0.4c0.3,0.1,0.6,0,0.8-0.1s0.5-0.3,0.6-0.5c0.2-0.2,0.2-0.5,0.2-0.8
			c0-0.2,0-0.4-0.1-0.5c-0.1-0.2-0.2-0.3-0.3-0.5c-0.1-0.1-0.3-0.2-0.5-0.3C1860.9,262,1860.8,262,1860.6,262z"/>
		<path class="st4" d="M1882,354.7c-0.3,0-0.5,0.1-0.8,0.2c-0.2,0.2-0.4,0.4-0.5,0.6c-0.1,0.3-0.1,0.5-0.1,0.8
			c0.1,0.3,0.2,0.5,0.4,0.7c0.2,0.2,0.4,0.3,0.7,0.4c0.3,0.1,0.6,0,0.8-0.1c0.3-0.1,0.5-0.3,0.6-0.5c0.2-0.2,0.2-0.5,0.2-0.8
			c0-0.2,0-0.4-0.1-0.5c-0.1-0.2-0.2-0.3-0.3-0.5c-0.1-0.1-0.3-0.2-0.5-0.3C1882.3,354.8,1882.2,354.7,1882,354.7z"/>
		<path class="st4" d="M1882,331.6c-0.3,0-0.6,0.1-0.8,0.2c-0.2,0.2-0.4,0.4-0.5,0.6c-0.1,0.3-0.1,0.5-0.1,0.8
			c0.1,0.3,0.2,0.5,0.4,0.7c0.2,0.2,0.5,0.3,0.7,0.4c0.3,0.1,0.6,0,0.8-0.1c0.3-0.1,0.5-0.3,0.6-0.5c0.2-0.2,0.2-0.5,0.2-0.8
			c0-0.4-0.1-0.7-0.4-1C1882.7,331.7,1882.3,331.6,1882,331.6z"/>
		<path class="st4" d="M1882,308.4c-0.3,0-0.6,0.1-0.8,0.2c-0.2,0.2-0.4,0.4-0.5,0.6c-0.1,0.3-0.1,0.5-0.1,0.8
			c0.1,0.3,0.2,0.5,0.4,0.7c0.2,0.2,0.5,0.3,0.7,0.4c0.3,0.1,0.6,0,0.8-0.1c0.3-0.1,0.5-0.3,0.6-0.5c0.2-0.2,0.2-0.5,0.2-0.8
			c0-0.4-0.1-0.7-0.4-1C1882.7,308.5,1882.3,308.4,1882,308.4z"/>
		<path class="st4" d="M1882,285.2c-0.3,0-0.6,0.1-0.8,0.2c-0.2,0.2-0.4,0.4-0.5,0.6c-0.1,0.3-0.1,0.5-0.1,0.8
			c0.1,0.3,0.2,0.5,0.4,0.7c0.2,0.2,0.5,0.3,0.7,0.4c0.3,0.1,0.6,0,0.8-0.1s0.5-0.3,0.6-0.5c0.2-0.2,0.2-0.5,0.2-0.8
			c0-0.4-0.1-0.7-0.4-1C1882.7,285.3,1882.3,285.2,1882,285.2z"/>
		<path class="st4" d="M1882,262c-0.3,0-0.6,0.1-0.8,0.2c-0.2,0.2-0.4,0.4-0.5,0.6c-0.1,0.3-0.1,0.5-0.1,0.8
			c0.1,0.3,0.2,0.5,0.4,0.7c0.2,0.2,0.5,0.3,0.7,0.4c0.3,0.1,0.6,0,0.8-0.1c0.3-0.1,0.5-0.3,0.6-0.5c0.2-0.2,0.2-0.5,0.2-0.8
			c0-0.4-0.1-0.7-0.4-1C1882.7,262.1,1882.3,262,1882,262z"/>
	</g>
	<path class="st5" d="M299.8,767.4c-6.5,0-6.5-8.4-13.1-8.4c-6.5,0-6.5,8.4-13.1,8.4c-6.5,0-6.5-8.4-13.1-8.4
		c-6.5,0-6.6,8.4-13.1,8.4c-6.6,0-6.6-8.4-13.1-8.4c-6.6,0-6.5,8.4-13.1,8.4s-6.6-8.4-13.1-8.4s-6.6,8.4-13.1,8.4"/>
	<path class="st6" d="M1661.8,412.4c-6.5,0-6.5-8.4-13.1-8.4c-6.5,0-6.5,8.4-13.1,8.4c-6.5,0-6.5-8.4-13.1-8.4s-6.6,8.4-13.1,8.4
		c-6.6,0-6.6-8.4-13.1-8.4c-6.6,0-6.5,8.4-13.1,8.4c-6.5,0-6.6-8.4-13.1-8.4s-6.6,8.4-13.1,8.4"/>
	<path class="st7" d="M1716.8,885.4c-6.6,0-6.6-8.4-13.1-8.4s-6.5,8.4-13.1,8.4c-6.5,0-6.5-8.4-13.1-8.4s-6.6,8.4-13.1,8.4
		c-6.6,0-6.6-8.4-13.1-8.4c-6.6,0-6.6,8.4-13.1,8.4s-6.5-8.4-13.1-8.4c-6.5,0-6.6,8.4-13.1,8.4"/>
</g>
</svg>
