<?xml version="1.0" encoding="utf-8"?>
<!-- Generator: Adobe Illustrator 25.2.0, SVG Export Plug-In . SVG Version: 6.00 Build 0)  -->
<svg version="1.1" id="Layer_1" xmlns="http://www.w3.org/2000/svg" xmlns:xlink="http://www.w3.org/1999/xlink" x="0px" y="0px"
	 viewBox="0 0 580 627.5" style="enable-background:new 0 0 580 627.5;" xml:space="preserve">
<style type="text/css">
	.st0{fill:#F3EADB;}
	.st1{fill:#CDAC89;}
	.st2{fill:#D3C7BA;}
	.st3{fill:#D1B08D;}
	.st4{fill:#F9F5EC;}
	.st5{display:none;}
	.st6{display:inline;}
	.st7{display:inline;fill:#7A2F00;}
	.st8{fill:#BA926E;}
	.st9{fill:#FFFFFF;}
	.st10{fill:#F4C69D;}
</style>
<g>
	<g>
		<path class="st0" d="M466.58,240.85L349.24,215.3c-28.98-6.31-57.58,12.07-63.89,41.04l-48.5,222.79
			c-6.31,28.98,12.07,57.58,41.04,63.89l117.34,25.55c28.98,6.31,57.58-12.07,63.89-41.04l48.5-222.79
			C513.93,275.76,495.56,247.16,466.58,240.85z"/>
		<path class="st1" d="M470.15,224.44l-117.34-25.55c-37.98-8.27-75.6,15.9-83.87,53.88l-48.5,222.79
			c-8.27,37.98,15.9,75.6,53.88,83.87l117.34,25.55c37.98,8.27,75.6-15.9,83.87-53.88l48.5-222.79
			C532.3,270.33,508.13,232.71,470.15,224.44z M459.12,527.52c-6.31,28.98-34.91,47.35-63.89,41.04l-117.34-25.55
			c-28.98-6.31-47.35-34.91-41.04-63.89l48.5-222.79c6.31-28.98,34.91-47.35,63.89-41.04l117.34,25.55
			c28.98,6.31,47.35,34.91,41.04,63.89L459.12,527.52z"/>
	</g>
	<g>
		<path class="st2" d="M478.72,308.2L310.2,271.52c-1.01-0.22-1.65-1.21-1.43-2.22c0.22-1.01,1.21-1.65,2.22-1.43l168.51,36.69
			c1.01,0.22,1.65,1.21,1.43,2.22S479.72,308.42,478.72,308.2z"/>
	</g>
	<g>
		<line class="st3" x1="299.57" y1="320.35" x2="468.08" y2="357.04"/>
		<path class="st2" d="M467.69,358.86l-168.51-36.69c-1.01-0.22-1.65-1.21-1.43-2.22c0.22-1.01,1.21-1.65,2.22-1.43l168.51,36.69
			c1.01,0.22,1.65,1.21,1.43,2.22S468.69,359.08,467.69,358.86z"/>
	</g>
	<g>
		<line class="st3" x1="288.54" y1="371.01" x2="457.06" y2="407.69"/>
		<path class="st2" d="M456.66,409.52l-168.51-36.69c-1.01-0.22-1.65-1.21-1.43-2.22c0.22-1.01,1.21-1.65,2.22-1.43l168.51,36.69
			c1.01,0.22,1.65,1.21,1.43,2.22C458.66,409.1,457.67,409.74,456.66,409.52z"/>
	</g>
	<g>
		<line class="st3" x1="277.51" y1="421.66" x2="446.03" y2="458.35"/>
		<path class="st2" d="M445.63,460.17l-168.51-36.69c-1.01-0.22-1.65-1.21-1.43-2.22s1.21-1.65,2.22-1.43l168.51,36.69
			c1.01,0.22,1.65,1.21,1.43,2.22C447.63,459.76,446.64,460.39,445.63,460.17z"/>
	</g>
	<g>
		<line class="st3" x1="266.49" y1="472.32" x2="435" y2="509.01"/>
		<path class="st2" d="M434.6,510.83l-168.51-36.69c-1.01-0.22-1.65-1.21-1.43-2.22s1.21-1.65,2.22-1.43l168.51,36.69
			c1.01,0.22,1.65,1.21,1.43,2.22C436.6,510.41,435.61,511.05,434.6,510.83z"/>
	</g>
</g>
<g>
	<path class="st3" d="M394.26,206.03c0,0-7.66-14.24,3.36-20.14s17.44,8.86,17.44,8.86s2.59-12.75,13.51-10.25
		c13.28,3.04,6.38,22.58,6.38,22.58s14.47-7.83,19.8,1.69c6.77,12.11-7.55,17.63-7.55,17.63s11.58,3.47,9.37,15.32
		c-2.21,11.85-19.53,6.64-19.53,6.64s5.47,13.42-4.56,17.45s-17.38-6.77-17.38-6.77s-1.64,11.72-15.18,8.47
		c-4.69-1.13-6.74-5.9-7.23-9.24c-0.93-6.31,3.32-12.25,3.32-12.25s-16.02,7.29-22.27-2.47c-6.25-9.77,8.99-17.15,8.99-17.15
		s-11.29-2.12-9.64-13.33C374.91,200.69,394.26,206.03,394.26,206.03z"/>
	<path class="st4" d="M385.81,226.26c0,0-8.77-3.13-7.38-12.33c1.39-9.2,18.36-5.62,18.36-5.62s-6.38-13.28,2.8-18.04
		c9.18-4.75,15.51,8.08,15.51,8.08s3.77-12.89,13.41-8.08c3.45,1.73,5.33,4.66,5.93,7.62c1.07,5.31-1.3,10.88-1.3,10.88
		s14.24-5.3,18.02,3.47s-6.9,14.02-6.9,14.02s10.13,2.87,7.71,13.11c-2.42,10.25-17.09,6.69-17.09,6.69s5.12,8.86-3.73,14.76
		c-8.86,5.9-16.03-5.38-16.03-5.38s-1.38,9.94-11.23,7.87c-15.2-3.19-5.3-20.73-5.3-20.73s-14.5,9.55-19.54-1.39
		C374,230.26,385.81,226.26,385.81,226.26z"/>
	<circle class="st0" cx="415.68" cy="225.96" r="17.45"/>
	<g>
		<line class="st2" x1="394.71" y1="216.84" x2="437.17" y2="216.84"/>
		<path class="st2" d="M437.17,217.3h-42.46c-0.25,0-0.46-0.21-0.46-0.46s0.21-0.46,0.46-0.46h42.46c0.25,0,0.46,0.21,0.46,0.46
			S437.43,217.3,437.17,217.3z"/>
	</g>
	<g>
		<line class="st2" x1="394.71" y1="225.96" x2="437.17" y2="225.96"/>
		<path class="st2" d="M437.17,226.42h-42.46c-0.25,0-0.46-0.21-0.46-0.46s0.21-0.46,0.46-0.46h42.46c0.25,0,0.46,0.21,0.46,0.46
			S437.43,226.42,437.17,226.42z"/>
	</g>
	<g>
		<line class="st2" x1="394.71" y1="235.08" x2="437.17" y2="235.08"/>
		<path class="st2" d="M437.17,235.54h-42.46c-0.25,0-0.46-0.21-0.46-0.46s0.21-0.46,0.46-0.46h42.46c0.25,0,0.46,0.21,0.46,0.46
			S437.43,235.54,437.17,235.54z"/>
	</g>
</g>
<g>
	<path class="st0" d="M318.54,224.24H198.46c-29.65,0-53.69,24.04-53.69,53.7v228.01c0,29.66,24.04,53.7,53.69,53.7h120.09
		c29.65,0,53.69-24.04,53.69-53.7V277.93C372.24,248.28,348.2,224.24,318.54,224.24z"/>
	<path class="st1" d="M318.54,207.44H198.46c-38.87,0-70.49,31.62-70.49,70.49v228.01c0,38.87,31.62,70.49,70.49,70.49h120.09
		c38.87,0,70.49-31.62,70.49-70.49V277.93C389.03,239.06,357.41,207.44,318.54,207.44z M372.24,505.94
		c0,29.66-24.04,53.7-53.69,53.7H198.46c-29.65,0-53.69-24.04-53.69-53.7V277.93c0-29.65,24.04-53.7,53.69-53.7h120.09
		c29.65,0,53.69,24.04,53.69,53.7V505.94z"/>
</g>
<g>
	<path class="st3" d="M242.18,196.62c0,0-7.66-14.24,3.36-20.14c11.03-5.9,17.44,8.86,17.44,8.86s2.59-12.75,13.51-10.25
		c13.28,3.04,6.38,22.58,6.38,22.58s14.47-7.83,19.8,1.69c6.77,12.11-7.55,17.63-7.55,17.63s11.58,3.47,9.37,15.32
		c-2.21,11.85-19.53,6.64-19.53,6.64s5.47,13.42-4.56,17.45c-10.03,4.04-17.38-6.77-17.38-6.77s-1.64,11.72-15.18,8.47
		c-4.69-1.13-6.74-5.9-7.23-9.24c-0.93-6.31,3.32-12.25,3.32-12.25s-16.02,7.29-22.27-2.47c-6.25-9.77,8.99-17.15,8.99-17.15
		s-11.29-2.12-9.64-13.33C222.84,191.28,242.18,196.62,242.18,196.62z"/>
	<path class="st4" d="M233.73,216.85c0,0-8.77-3.13-7.38-12.33c1.39-9.2,18.36-5.62,18.36-5.62s-6.38-13.28,2.8-18.04
		c9.18-4.75,15.51,8.08,15.51,8.08s3.77-12.89,13.41-8.08c3.45,1.73,5.33,4.66,5.93,7.62c1.07,5.31-1.3,10.88-1.3,10.88
		s14.24-5.3,18.02,3.47s-6.9,14.02-6.9,14.02s10.13,2.87,7.71,13.11c-2.42,10.25-17.09,6.69-17.09,6.69s5.12,8.86-3.73,14.76
		c-8.86,5.9-16.03-5.38-16.03-5.38s-1.38,9.94-11.23,7.87c-15.2-3.19-5.3-20.73-5.3-20.73s-14.5,9.55-19.54-1.39
		C221.92,220.85,233.73,216.85,233.73,216.85z"/>
	<circle class="st0" cx="263.6" cy="216.55" r="17.45"/>
	<g>
		<line class="st2" x1="242.63" y1="207.43" x2="285.09" y2="207.43"/>
		<path class="st2" d="M285.09,207.89h-42.46c-0.25,0-0.46-0.21-0.46-0.46s0.21-0.46,0.46-0.46h42.46c0.25,0,0.46,0.21,0.46,0.46
			S285.35,207.89,285.09,207.89z"/>
	</g>
	<g>
		<line class="st2" x1="242.63" y1="216.55" x2="285.09" y2="216.55"/>
		<path class="st2" d="M285.09,217.01h-42.46c-0.25,0-0.46-0.21-0.46-0.46s0.21-0.46,0.46-0.46h42.46c0.25,0,0.46,0.21,0.46,0.46
			S285.35,217.01,285.09,217.01z"/>
	</g>
	<g>
		<line class="st2" x1="242.63" y1="225.67" x2="285.09" y2="225.67"/>
		<path class="st2" d="M285.09,226.12h-42.46c-0.25,0-0.46-0.21-0.46-0.46c0-0.25,0.21-0.46,0.46-0.46h42.46
			c0.25,0,0.46,0.21,0.46,0.46C285.55,225.92,285.35,226.12,285.09,226.12z"/>
	</g>
</g>
<g>
	<path class="st2" d="M344.73,287.47H172.27c-1.03,0-1.87-0.83-1.87-1.87c0-1.03,0.84-1.87,1.87-1.87h172.46
		c1.03,0,1.87,0.83,1.87,1.87C346.59,286.63,345.76,287.47,344.73,287.47z"/>
</g>
<g>
	<line class="st3" x1="172.27" y1="492.98" x2="344.73" y2="492.98"/>
	<path class="st2" d="M344.73,494.84H172.27c-1.03,0-1.87-0.83-1.87-1.87c0-1.03,0.84-1.87,1.87-1.87h172.46
		c1.03,0,1.87,0.83,1.87,1.87C346.59,494.01,345.76,494.84,344.73,494.84z"/>
</g>
<g>
	<line class="st3" x1="172.27" y1="337.45" x2="344.73" y2="337.45"/>
	<path class="st2" d="M344.73,339.31H172.27c-1.03,0-1.87-0.83-1.87-1.87c0-1.03,0.84-1.87,1.87-1.87h172.46
		c1.03,0,1.87,0.83,1.87,1.87C346.59,338.48,345.76,339.31,344.73,339.31z"/>
</g>
<g>
	<line class="st3" x1="172.27" y1="389.29" x2="344.73" y2="389.29"/>
	<path class="st2" d="M344.73,391.16H172.27c-1.03,0-1.87-0.83-1.87-1.87c0-1.03,0.84-1.87,1.87-1.87h172.46
		c1.03,0,1.87,0.83,1.87,1.87C346.59,390.32,345.76,391.16,344.73,391.16z"/>
</g>
<g>
	<line class="st3" x1="172.27" y1="441.13" x2="344.73" y2="441.13"/>
	<path class="st2" d="M344.73,443H172.27c-1.03,0-1.87-0.83-1.87-1.87c0-1.03,0.84-1.87,1.87-1.87h172.46
		c1.03,0,1.87,0.83,1.87,1.87C346.59,442.16,345.76,443,344.73,443z"/>
</g>
<g>
	<g class="st5">
		<path class="st6" d="M343,162.21c0.29-4.72,1.97-10.05-0.89-14.26c-1.87-3.61-8.18-3.52-8.58,0.96
			c-2.63,5.6-2.62,22.32-7.54,24.26c-12.14,3.87-23.74,9.49-36.08,12.5c1.22-11.31,6.65-24.26-8.97-27.31
			c-8.85-0.43-19.71-2.13-26.81,4.35c-2.63,2.43-1.56,7.75,2.39,7.61c6.37,0.97,18.77-5.36,22.84,0.24
			c-3.43,15.95-8.7,31.7-12.77,47.54c-1.68,8.81-6.34,17.25,7.03,15.89c6.78-8.13,8.17-18.5,11.15-28.26
			c4.73-12.9,28.7-12.65,40.73-20.88c-0.9,16.04-4.22,31.03-4.64,47.04c-0.39,5.62,0.95,11.83,8.21,11.62
			c8.64-0.6,7.9-15.76,8.83-22.35C338.7,201.43,340.2,181.76,343,162.21z"/>
		<path class="st6" d="M247.15,245.72c-18.57,0.41-37.23,4.59-55.91,4.81c-3.63-12.23,43.29-4.01,44.74-25.02
			c0.47-10.01-2.83-23.13-15.5-20.73c-7,1.76-35.1,3.77-31.83,14.32c0.69,1.93,2.72,3.36,5,3.2c9.63-1.12,19.14-4.99,28.76-5.65
			c10.04,13.45-28.05,15.04-35.35,18.37c-6.39,2.14-8.26,10.37-9.12,16.34c-1.2,9.84,8.55,13.13,16.65,12.15
			c8.31-1.66,41.23-1.26,55.06-8.1C254.52,252.99,252.57,245.6,247.15,245.72z"/>
		<path class="st6" d="M193.81,153.58c7.3-1.84,13.75-5.1,21.4-5.38c-6.38,11.83-17.52,19.69-23.11,31.69
			c2.2,16.4,20.85-8.15,25.46-12.38c5.19,5.03,9.48,10.89,16.3,13.46c4.73,1.46,8.99-4.37,5.23-8.26
			c-5.16-4.84-9.94-9.68-15.17-14.83c2.78-6.41,8.88-13.07,4.01-19.34c-3.39-2.05-6.73-4.36-11.2-3.01
			c-8.11,2.45-16.31,4.6-24.44,6.96c-5.28,1.34-14.79,5.83-9.89,12.32C185.58,158.75,190.28,155.13,193.81,153.58z"/>
		<path class="st6" d="M375.8,233.82c-2.44-4.06,0.5-13.08-6.74-12.09c-4.88,0.76-5.36,6.17-5.75,10.14
			c-0.79,11.14,5.01,18.15,15.99,19.66c10.83,1.61,50.92-2.37,58.66-15.7c2.45-4.22-1.75-9.25-6.43-7.88
			C415.32,232.71,376.94,241.48,375.8,233.82z"/>
		<path class="st6" d="M346.89,205.41c12.66,3.55,25.4-2.23,38.43-1.78c0.04,9.05-0.96,17.1,4.23,24.69
			c2.72,3.65,7.05-0.78,7.31-4.02c1.87-7.52,1.05-15.12,2.35-22.7c4.85-1.26,13.59-1.25,18.73-4.14c2.73-1.54,3.72-4.99,2.25-7.76
			l-0.03-0.06c-1.07-2.01-3.22-3.23-5.49-3.08c-22.86,1.55-45.66,5.67-67.91,10.78C343.22,198.66,343.52,204.1,346.89,205.41z"/>
		<path class="st6" d="M261.48,186.21c-0.54-2.23-2.03-3.7-4.36-4.05c-10.3-0.56-20.73,1-31,1.81c-18.65,2.41-37.49,4.17-55.69,9.08
			c-3.82,0.63-4.05,3.28-3.82,6.25c0.22,2.78,2.44,5.05,5.22,5.22c3.3,0.2,6.76-1.16,10.2-1.33c23.77-4.26,47.89-5.97,71.74-9.61
			C257.44,192.88,262.62,190.89,261.48,186.21z"/>
		<path class="st6" d="M387.87,182.68c7.37-6.46,11.22-14.65,12.93-24.02c2.43-8.07-10.24-21.88-20.25-15.75
			c-12.72,7.46-10.64,8.62-13.73,22.18C365.36,177.78,375.46,192.55,387.87,182.68z M380.71,154.2c0.45-1.75,2.42-2.47,4.08-1.92
			c10.55,2.14,3.44,22.42-5.23,22.42C375.24,173.02,379.26,161.24,380.71,154.2z"/>
		<path class="st7" d="M427.92,415.43c-17.8,0.06-35.44,3.96-52.44,9.18c-3.66,0.57-23.88,8.83-19.96-0.24
			c10.82-9.91,31.91-4.77,45.17-18.31c8.92-6.53,15.9-24.8-0.87-26.61c-13.76-1.63-27.05,3.35-40.44,5.78
			c-5.61,1.78-14.21,0.93-16.54,7.12c-0.5,1.32-0.22,2.83,0.67,3.92c5.92,7.27,11.08,3.5,19.81,2.02
			c8.03-1.92,16.04-3.96,24.07-5.88c0.77-0.18,1.54-0.4,2.33-0.54c2.3-0.42,3.89,2.35,2.32,4.08
			c-11.95,13.13-34.98,6.48-47.06,19.78c-11.02,11.64,3.04,30.66,17.11,28.88c16.89-2.46,33.04-8.35,50.04-10.24
			c9.03-0.24,26.03-3.13,21.5-15.75C432.74,416.01,430.29,415.5,427.92,415.43z"/>
		<path class="st7" d="M347.26,379.29c19.48-3.8,39.14-6.77,58.4-11.59c6.47-0.64,13.46-9.87,5.51-13.76
			c-11.5-3.39-23.38,2.81-35.22,2.81c1.07-9.5,2.07-18.37,3.11-27.58c7.87-4.68,22-6.71,25.67-15.66c1.45-5.14-2.44-9.44-7.7-8.37
			c-12.15,2.97-23.1,10.47-35.41,12.36c-1.71,0.26-3.26-1.04-3.28-2.77c-0.1-7.53,6.28-17.46-2.13-21.01
			c-0.36-0.15-0.77-0.24-1.16-0.23c-8.17,0.3-10.02,17.07-11.49,23.54c-2.45,11.66,8.26,19.19,21.15,17.3
			c-1.37,8.99-1.29,16.2,0.4,25.03c-7.1,2.23-14.49,3.43-21.61,5.58c-6.14,1.78-9.4,2.01-8.13,9.77c0.27,1.63,1.28,3.09,2.75,3.85
			C340.87,379.99,343.99,379.9,347.26,379.29z"/>
		<path class="st7" d="M143.7,387.02c11.26-3.47,23.47-4.77,33.83-10.6c5.22-2.45,7.5-11.57,0-12.46c-3.52-0.39-7.26-0.47-10.7,0.28
			c-8.05,1.77-15.97,4.12-23.95,6.22c-1.7,0.45-3.42,1.27-5.52-0.46c-1.29-11.08,0.34-22.13,3.86-33.68
			c8.56-1.66,35.41-2.2,38.69-9.51c0.96-1.96,0.57-4.54-1.19-5.52c-6.24-4.85-14.44-2.14-21.72-1.99
			c-13.9,1.96-28.66,0.86-41.99,5.46c-5.79,2.86-3.89,11.91,2.63,12.4c3.18,0.12,5.91-0.43,9.11,0.71
			c-3.14,14.86-8.68,29.93-0.14,43.99C130.4,389.81,136.37,388.71,143.7,387.02z"/>
		<path class="st7" d="M323.76,296.75c-0.48-0.3-1.02-0.49-1.59-0.55c-18.24-1.81-37.2,0.98-55.55,2.1
			c-0.42,0.03-0.84,0.08-1.23,0.24c-3.84,1.57-8.12,8.77-3.49,11.62c4.11,3.45,8.95,1.17,13.71,2.48c0.82,0.22,1.33,1.03,1.22,1.87
			c-0.85,6.4-0.63,12.78,0.97,19.75c0.24,1.06-0.54,2.08-1.63,2.09c-2.94,0.03-5.39,0.02-7.82,0.23c-0.09,0.01-0.19,0.02-0.28,0.04
			c-10.46,2.24-6.76,13.98,2.37,14.7c14.47,0.35,29.6-1.55,43.34-6.21c4.81-1.87,1.93-9.05-2.46-9.6c-1.87-0.39-4.09,0.31-5.74-1.09
			c-0.45-0.39-0.63-1.02-0.5-1.6c1.51-6.94,3.02-13.89,4.58-21.05c0.13-0.6,0.56-1.1,1.15-1.27c5.8-1.65,15.36-1.63,15.94-8.89
			C326.83,299.28,325.49,297.83,323.76,296.75z M293.19,329.75c-0.39,1.85-3.03,1.77-3.32-0.09c-0.79-5.03-0.4-11.11,1.02-16.71
			c0.14-0.57,0.58-1.03,1.14-1.2c0.74-0.23,1.53-0.39,2.32-0.39c0.91,0,1.67,0.76,1.66,1.67
			C295.99,318.48,294.45,323.86,293.19,329.75z"/>
		<path class="st7" d="M216.97,287.43c-6.74,2.21-8.06,10.6-9.41,16.66c-2.82,15.99-5.81,31.96-8.32,48
			c-2.42,16.48-5.4,33.32-3.06,50c0.5,3.36,3.98,5.77,7.3,5.68c10.3,0.13,5.83-21.35,8.68-28.34c0.95-0.3,1.45-0.65,1.89-0.58
			c10.26,1.19,20.79-0.75,30.32-4.19c2.56-1.54,3.97-4.6,3.32-7.27c-2.61-10.46-25.42-4.52-33.75-4.01
			c0.29-14.9,3.07-29.36,4.56-44.16C218.02,313.12,227.81,285.56,216.97,287.43z"/>
		<path class="st7" d="M505.16,317.74c-5.87-0.94-7.94-0.04-9.87,4.41c-0.05,0.11-0.09,0.22-0.12,0.33
			c-6.02,21.36-7.69,42.58-9.57,64.89c-0.24,7.7-2.02,18.95,5.29,25.36c4.27,3.48,10.35,2.21,11.92-2.61
			c2.64-9.42,2.39-19.24,3.1-28.85c0.05-19.99,2.89-39.88,3.6-59.82C509.37,319.07,508.11,318.22,505.16,317.74z"/>
		<path class="st7" d="M246.17,411.32c-8.34-0.18-15.99,3.58-23.86,5.81c-9.58,5.12-105.49,18.91-74.5-8.39
			c3.78-4.29-1.52-8.61-6.07-7.42c-11.75,1.75-17.06,16.96-10.04,25.24c7.49,9.83,18.82,13.28,30.84,12.93
			c0.01,0.15,0.01,0.3,0.02,0.44c25.92-0.49,51.57-4.43,75.48-14.76C242.97,424.31,255.67,414.13,246.17,411.32z"/>
		<path class="st7" d="M468.4,349.3c-0.57-6.71-4.69-10.2-10.91-11.89c-24.23-7.49-46.77,39.18-16.36,43.57
			c0.19,0.03,0.39,0.04,0.59,0.04c15.01,0.05,32.06-15.1,26.81-31.11C468.46,349.72,468.42,349.5,468.4,349.3z M455.6,354.54
			c-0.67,3.91-5.71,9.51-10.46,10.52c-2.28,0.48-4.32-1.56-3.81-3.83c0.95-4.15,4.44-6.84,7.46-9.75
			C450.74,349.7,456.06,351.31,455.6,354.54z"/>
		<path class="st7" d="M308.18,354.69c-14.88,1.38-29.69,3.52-44.68,3.66c-5.71-0.59-11.74,5.45-6.17,10.01
			c7.96,4.34,17.77,2.03,26.5,2.98c1.96,0.07,4.13-0.85,5.48,0.81c0.68,6.12-3.15,32.98,8.83,24.25c4.95-7.72,3.58-17.41,6.04-26.62
			c6.56-1.36,11.9-1.97,17.91-3.94c3.04-1.12,4.39-3.17,4.26-5.77C325.28,352.55,313.78,354.85,308.18,354.69z"/>
		<path class="st7" d="M285.48,403.99c-5.21,4.44-9.04,12.83-8.2,19.73c4.48,28.84,32.74,15.07,34.18-6.33
			C310.47,404.29,297.15,396.82,285.48,403.99z M290.59,426.48c-2.76-4.55,0.34-13.88,6.57-10.68
			C301.54,418.95,295.3,426.5,290.59,426.48z"/>
	</g>
	<g>
		<path class="st8" d="M155.94,305.94c-9.35-22.43-29.45-26.71-43.52-26.68c-7.56,0.02-12.23,8.18-8.43,14.72
			c9.83,16.9,29.04,42.94,49.03,31.3c0.04,0.08,0.06,0.13,0.06,0.13S160.84,317.69,155.94,305.94z"/>
		<path class="st1" d="M158.96,337.23c-15.79-36.35-53-50.37-53.37-50.5l0.27-0.75c0.38,0.14,37.9,14.27,53.83,50.93L158.96,337.23z
			"/>
		<polygon class="st1" points="109.3,296.84 109.15,296.06 121.01,293.77 121.16,294.55 		"/>
		
			<rect x="124.51" y="284.14" transform="matrix(0.9453 -0.3262 0.3262 0.9453 -88.2405 56.6824)" class="st1" width="0.8" height="14.69"/>
		
			<rect x="120.95" y="308.78" transform="matrix(0.9815 -0.1913 0.1913 0.9815 -56.7502 30.5228)" class="st1" width="17.5" height="0.8"/>
		
			<rect x="144.91" y="296.13" transform="matrix(0.9984 -0.0571 0.0571 0.9984 -17.2227 8.7936)" class="st1" width="0.8" height="19.46"/>
	</g>
	<g>
		<path class="st8" d="M550,436.88c22.43-9.35,26.71-29.45,26.68-43.52c-0.02-7.56-8.18-12.23-14.72-8.43
			c-16.9,9.83-42.94,29.04-31.3,49.03c-0.08,0.04-0.13,0.06-0.13,0.06S538.25,441.77,550,436.88z"/>
		<path class="st1" d="M519.02,440.63l-0.32-0.73c36.35-15.79,50.37-53,50.5-53.37l0.75,0.27
			C569.81,387.18,555.68,424.7,519.02,440.63z"/>
		<polygon class="st1" points="561.38,402.09 559.09,390.23 559.87,390.08 562.17,401.94 		"/>
		<polygon class="st1" points="557.64,408.62 557.38,407.86 571.27,403.07 571.53,403.82 		"/>
		
			<rect x="546.36" y="401.88" transform="matrix(0.9816 -0.1908 0.1908 0.9816 -68.3166 111.8901)" class="st1" width="0.8" height="17.5"/>
		<polygon class="st1" points="540.39,427.19 540.34,426.4 559.77,425.29 559.81,426.08 		"/>
	</g>
	<g>
		<g>
			<path class="st8" d="M333.92,62.61c-22.6-1.9-32.59,16.42-36.22,25.89c-1.04,2.7,0.93,5.59,3.83,5.58
				c13.27-0.05,45.6-2.24,44.6-22.61c0.07,0,0.11,0.01,0.11,0.01S343.7,63.43,333.92,62.61z"/>
			<path class="st1" d="M302.87,90.26l-0.41-0.45c0.23-0.21,23.24-20.89,54-18.77l-0.04,0.61C325.92,69.55,303.1,90.06,302.87,90.26
				z"/>
			<polygon class="st1" points="311.12,91.32 310.53,91.14 313.17,82.21 313.76,82.38 			"/>
			
				<rect x="312.69" y="73.06" transform="matrix(0.1458 -0.9893 0.9893 0.1458 189.4826 376.8943)" class="st1" width="0.61" height="11.33"/>
			
				<rect x="320.06" y="81.42" transform="matrix(0.2825 -0.9593 0.9593 0.2825 156.0991 372.1422)" class="st1" width="13.5" height="0.61"/>
			
				<rect x="329.78" y="62.36" transform="matrix(0.409 -0.9125 0.9125 0.409 131.3144 342.4902)" class="st1" width="0.61" height="15.01"/>
		</g>
		<path class="st9" d="M293.62,120.54c-3.06,4.11-11.3,4.66-15.72,1.54c-4.21-3.4-5.73-7.75-2.61-11.81
			c3.06-4.05,8.09-10.19,17.48-2.99C297.28,110.72,298.08,115.28,293.62,120.54z"/>
		<path class="st10" d="M279.6,130.44c-12.16-3.61-18.67-0.53-22.63,1.5c-4.03,2.03-0.12,5.66,5.34,7.36
			c5.72,1.56,16.39,1.29,20.35-0.77C288.43,135.89,285.43,132.16,279.6,130.44z"/>
		<path class="st10" d="M370.49,129.16c-12.16-3.61-18.67-0.53-22.63,1.5c-4.03,2.03-0.12,5.66,5.34,7.36
			c5.72,1.56,16.39,1.29,20.35-0.77C379.32,134.61,376.32,130.89,370.49,129.16z"/>
		<path class="st1" d="M290.22,109.51c0,2.46-1.99,4.45-4.45,4.45c-2.46,0-4.45-1.99-4.45-4.45c0-2.46,1.99-4.45,4.45-4.45
			C288.23,105.06,290.22,107.06,290.22,109.51z"/>
		<path class="st9" d="M350.91,120.54c-3.06,4.11-11.3,4.66-15.72,1.54c-4.21-3.4-5.74-8.13-2.62-12.19
			c3.06-4.05,8.09-10.19,17.48-2.99C354.55,110.35,355.37,115.28,350.91,120.54z"/>
		<path class="st1" d="M347.45,109.14c0,2.46-1.99,4.45-4.45,4.45c-2.46,0-4.45-1.99-4.45-4.45c0-2.46,1.99-4.45,4.45-4.45
			C345.46,104.69,347.45,106.68,347.45,109.14z"/>
		<path class="st1" d="M314.5,142c-16.2,0-18.13-12.27-18.15-12.41c-0.09-0.65,0.36-1.26,1.02-1.35c0.65-0.09,1.26,0.36,1.35,1.01
			l0,0c0.08,0.51,2.04,12.39,20.26,10.05c13.4-1.73,15.52-9.06,15.6-9.37c0.17-0.63,0.82-1.02,1.46-0.85
			c0.64,0.17,1.02,0.81,0.86,1.45c-0.09,0.37-2.49,9.2-17.61,11.15C317.57,141.9,315.97,142,314.5,142z"/>
	</g>
	<g>
		<path class="st1" d="M464.52,151.78c0,0-6.26-8.35-4.97-15.9c1.29-7.55,2.29-12.52,1.39-15.41c-0.89-2.88-2.49-5.67-2.49-5.67
			s22.17,8.85,27.33,24.35c0,0,7.26-13.72,21.57-15.8c0,0-2.19,6.46-2.58,15.71c-0.4,9.24-7.65,15.51-7.65,15.51
			s9.44-2.68,21.07,9.84c0,0-4.77,0.8-14.81,2.78c-10.04,1.99-17.2,0.7-17.2,0.7s-6.76,11.83-16.5,14.91
			c-9.74,3.08-12.42,5.86-12.42,5.86s3.88-10.14,4.27-13.92c0.4-3.78,1.69-5.27,1.69-5.27s-7.06-0.2-10.44-2.68
			c-3.38-2.49-12.42-4.37-17.49-2.49c0,0,7.75-9.24,17.69-11.33C462.93,150.89,464.52,151.78,464.52,151.78z"/>
		<path class="st8" d="M491.72,196.04l-1.45-0.36c0.01-0.04,1.02-4.23,0.55-12.37c-0.54-9.45-6.21-15.44-6.27-15.5l1.07-1.04
			c0.25,0.26,6.11,6.43,6.68,16.45C492.8,191.63,491.77,195.86,491.72,196.04z"/>
		<g>
			<path class="st8" d="M484.73,167.27c-0.14,0-0.28-0.08-0.34-0.22c-0.03-0.07-3.41-7.48-7.42-15.81
				c-5.72-11.87-9.87-19.71-12.02-22.69c-0.12-0.17-0.08-0.4,0.08-0.52c0.17-0.12,0.4-0.08,0.52,0.08
				c2.75,3.81,8.09,14.5,12.09,22.81c4.01,8.33,7.4,15.75,7.43,15.83c0.09,0.19,0,0.41-0.19,0.49
				C484.83,167.26,484.78,167.27,484.73,167.27z"/>
			<path class="st8" d="M477.3,151.07"/>
			<path class="st8" d="M477.3,151.45c-0.04,0-0.09-0.01-0.13-0.02c-0.19-0.07-0.29-0.29-0.22-0.48c0.02-0.06,2.43-6.43,2.33-10.68
				c0-0.21,0.16-0.38,0.36-0.38c0.22-0.02,0.37,0.16,0.38,0.36c0.1,4.4-2.28,10.7-2.38,10.96
				C477.59,151.36,477.45,151.45,477.3,151.45z"/>
			<path class="st8" d="M479.9,156.9c-0.05,0-0.11-0.01-0.16-0.03l-11.84-5.45c-0.19-0.09-0.27-0.31-0.18-0.49
				c0.09-0.19,0.31-0.27,0.49-0.18l11.84,5.45c0.19,0.09,0.27,0.31,0.18,0.49C480.18,156.82,480.04,156.9,479.9,156.9z"/>
			<path class="st8" d="M483.48,164.55c-0.05,0-0.1-0.01-0.15-0.03c-0.19-0.08-0.27-0.3-0.19-0.49c0,0,2.55-5.85,5.28-11.97
				c0.46-1.03,0.93-2.07,1.39-3.09c1.89-4.19,3.28-7.18,4.14-8.89c0.09-0.18,0.31-0.26,0.5-0.17c0.18,0.09,0.26,0.32,0.17,0.5
				c-0.85,1.7-2.24,4.68-4.12,8.86c-0.46,1.02-0.92,2.06-1.38,3.09c-2.73,6.11-5.27,11.96-5.28,11.96
				C483.76,164.47,483.62,164.55,483.48,164.55z"/>
			<path class="st8" d="M489.68,150.52c-0.16,0-0.3-0.1-0.35-0.25c-0.05-0.15-1.3-3.83-1.4-7.32c-0.01-0.21,0.16-0.38,0.36-0.38
				c0.19-0.03,0.38,0.16,0.38,0.36c0.1,3.38,1.34,7.07,1.36,7.1c0.07,0.2-0.04,0.41-0.23,0.47
				C489.76,150.52,489.72,150.52,489.68,150.52z"/>
			<path class="st8" d="M488.3,153.6c-0.2,0-0.37-0.16-0.37-0.36c0-0.21,0.16-0.38,0.37-0.38c0.04,0,4.2-0.09,5.79-0.97
				c0.18-0.1,0.41-0.04,0.51,0.15c0.1,0.18,0.03,0.41-0.15,0.51C492.7,153.51,488.49,153.6,488.3,153.6
				C488.31,153.6,488.31,153.6,488.3,153.6z"/>
			<path class="st8" d="M486.64,157.35c-0.11,0-0.22-0.05-0.29-0.14c-0.17-0.21-4.08-5.14-4.08-8.9c0-0.21,0.17-0.37,0.37-0.37
				s0.37,0.17,0.37,0.37c0,3.51,3.88,8.39,3.92,8.44c0.13,0.16,0.1,0.4-0.06,0.52C486.8,157.32,486.72,157.35,486.64,157.35z"/>
			<path class="st8" d="M485.09,167.66c-0.02,0-0.05,0-0.08-0.01c-0.05-0.01-5.49-1.15-12.47-2.85c-7.99-1.95-15.24-3.19-21.55-3.7
				c-0.21-0.02-0.36-0.2-0.34-0.4c0.02-0.21,0.2-0.35,0.4-0.34c6.35,0.51,13.64,1.76,21.67,3.72c6.97,1.7,12.39,2.84,12.44,2.85
				c0.2,0.04,0.33,0.24,0.29,0.44C485.42,167.54,485.27,167.66,485.09,167.66z"/>
			<path class="st8" d="M474.18,165.2c-0.14,0-0.27-0.08-0.34-0.21c-0.03-0.06-2.78-5.8-5.47-8.17c-0.15-0.14-0.17-0.37-0.03-0.53
				c0.14-0.15,0.37-0.17,0.53-0.03c2.81,2.48,5.54,8.17,5.65,8.41c0.09,0.19,0.01,0.41-0.18,0.5
				C474.29,165.18,474.24,165.2,474.18,165.2z"/>
			<path class="st8" d="M465.84,169.65c-0.14,0-0.28-0.08-0.34-0.22c-0.08-0.19,0-0.41,0.19-0.49c2.05-0.93,4.33-5.17,4.35-5.22
				c0.1-0.18,0.32-0.25,0.5-0.15c0.18,0.1,0.25,0.32,0.15,0.5c-0.1,0.18-2.43,4.51-4.71,5.54
				C465.94,169.64,465.89,169.65,465.84,169.65z"/>
			<path class="st8" d="M485.32,166.1"/>
			<path class="st8" d="M465.24,179.89c-0.06,0-0.13-0.02-0.19-0.05c-0.18-0.1-0.24-0.33-0.14-0.51c1.64-2.86,5.38-6.78,6.7-7.73
				c6.63-4.76,13.2-4.7,13.48-4.69c0.21,0,0.37,0.17,0.37,0.38c0,0.21-0.18,0.33-0.38,0.37c0,0-0.01,0-0.03,0
				c-0.48,0-6.8,0.09-13.01,4.55c-1.24,0.89-4.92,4.76-6.48,7.49C465.5,179.82,465.37,179.89,465.24,179.89z"/>
			<path class="st8" d="M471.83,172.28c-0.06,0-0.12-0.01-0.17-0.04c-1.74-0.89-5.74-0.43-5.78-0.42c-0.21,0.02-0.39-0.12-0.41-0.33
				c-0.02-0.2,0.12-0.39,0.33-0.41c0.17-0.02,4.27-0.49,6.21,0.5c0.18,0.09,0.25,0.32,0.16,0.5
				C472.1,172.21,471.97,172.28,471.83,172.28z"/>
			<path class="st8" d="M485.09,167.66c-0.08,0-0.15-0.02-0.22-0.07c-0.17-0.12-0.2-0.35-0.08-0.52c0.1-0.14,2.49-3.42,6.06-5.04
				c2.88-1.31,6.3-1.89,10.19-1.73c0.21,0.01,0.37,0.18,0.36,0.39c-0.01,0.21-0.18,0.34-0.39,0.36c-3.78-0.15-7.08,0.41-9.86,1.67
				c-3.38,1.54-5.74,4.76-5.76,4.8C485.32,167.61,485.21,167.66,485.09,167.66z"/>
			<path class="st8" d="M491,162.75c-0.02,0-0.05,0-0.07-0.01c-0.2-0.04-0.33-0.23-0.29-0.44c0.02-0.13,0.64-3.21,2.74-4.48
				c0.17-0.11,0.41-0.05,0.51,0.13c0.11,0.18,0.05,0.41-0.13,0.51c-1.82,1.09-2.39,3.95-2.4,3.98
				C491.33,162.62,491.18,162.75,491,162.75z"/>
			<path class="st8" d="M499.63,163.75c-0.07,0-0.13-0.02-0.19-0.05c-0.87-0.52-4.46-2.26-4.49-2.28c-0.19-0.09-0.26-0.31-0.17-0.5
				c0.09-0.19,0.31-0.26,0.5-0.17c0.15,0.07,3.65,1.77,4.55,2.31c0.18,0.11,0.23,0.33,0.13,0.51
				C499.88,163.68,499.76,163.75,499.63,163.75z"/>
			<path class="st8" d="M471.83,139.14c-0.03,0-0.07,0-0.1-0.02c-0.2-0.06-0.31-0.26-0.25-0.46c0.01-0.05,1.59-5.51,1.52-10.33
				c0-0.21,0.16-0.38,0.37-0.38c0,0,0,0,0,0c0.2,0,0.37,0.16,0.37,0.37c0.08,4.93-1.53,10.49-1.55,10.55
				C472.14,139.03,472,139.14,471.83,139.14z"/>
			<path class="st8" d="M469.67,142.28c-1.61,0-3.49-0.36-4.71-1.78c-0.13-0.16-0.12-0.39,0.04-0.53c0.15-0.13,0.39-0.12,0.53,0.04
				c2.13,2.47,6.93,1.17,6.97,1.16c0.21-0.05,0.4,0.06,0.46,0.26c0.05,0.2-0.06,0.4-0.26,0.46
				C472.59,141.92,471.27,142.28,469.67,142.28z"/>
			<path class="st8" d="M462.25,162.6c-0.12,0-0.24-0.06-0.31-0.17c-0.01-0.02-1.32-1.96-4.57-3.97c-0.18-0.11-0.23-0.34-0.12-0.51
				c0.11-0.18,0.34-0.23,0.51-0.12c3.41,2.11,4.75,4.11,4.81,4.2c0.11,0.17,0.07,0.4-0.11,0.52
				C462.39,162.58,462.32,162.6,462.25,162.6z"/>
			<path class="st8" d="M474.18,176.11c-0.08,0-0.17-0.03-0.24-0.08c-0.16-0.13-0.18-0.36-0.05-0.52c1.15-1.4,2.12-6.25,2.13-6.3
				c0.04-0.2,0.23-0.34,0.44-0.29c0.2,0.04,0.33,0.24,0.29,0.44c-0.04,0.21-1.02,5.08-2.28,6.62
				C474.4,176.07,474.29,176.11,474.18,176.11z"/>
			<path class="st8" d="M492.18,165.44c-2.28,0-3.48-0.92-3.54-0.97c-0.16-0.13-0.19-0.36-0.06-0.52c0.13-0.16,0.36-0.19,0.52-0.06
				l0,0c0.02,0.01,1.76,1.33,5.08,0.57c0.21-0.05,0.4,0.08,0.45,0.28c0.04,0.2-0.08,0.4-0.28,0.45
				C493.54,165.37,492.82,165.44,492.18,165.44z"/>
		</g>
	</g>
	<g>
		<path class="st10" d="M146.26,136.21c-1.91-5.82-11.02-4.2-11.02-4.2c-9.85-4.87-14,0.82-14,0.82c-11-1.78-13.77,4.68-13.77,4.68
			c-6.46,0.77-8.54,5.05-9.09,6.62c-0.12,0.35-0.11,0.73,0.04,1.07c0.94,2.22,4.71,11.21,4.81,12.9c0.11,1.93-1.35,1.77-1.35,1.77
			l-13.25-2.1c-0.57-0.09-1.15,0.07-1.58,0.45c-0.89,0.79-2.3,2.67-3.62,7.09c-2.02,6.78,0.59,10.14,0.59,10.14
			c-6.43,8.13-1.65,15.23-1.65,15.23c-1.28,5.04,1.91,7.88,1.91,7.88c-0.18,3.16,1.74,6.92,4.52,6.88
			c2.78-0.04,12.72-12.37,21.46-16.16c8.74-3.79,22.09-1.29,22.09-1.29c-2.56-21.17,6.72-36.11,8.57-39.73
			C142.76,144.65,148.17,142.03,146.26,136.21z"/>
		<g>
			<path class="st1" d="M129.15,184.1c-0.06,0-0.54,0.52-0.59,0.48c-22.16-18.09-39.44-22.07-39.62-22.11
				c-0.15-0.03-0.24-0.17-0.22-0.31c0.03-0.15,0.17-0.25,0.31-0.22C89.22,161.99,106.88,165.92,129.15,184.1
				c0.11,0.09,0.3-0.21,0.21-0.1C129.31,184.07,129.23,184.1,129.15,184.1z"/>
			<path class="st1" d="M128.04,184.85c-0.04,0-0.09-0.01-0.13-0.04c-14.74-8.38-41.85-15.42-42.12-15.49
				c-0.14-0.04-0.23-0.18-0.19-0.33c0.04-0.14,0.19-0.23,0.33-0.19c0.27,0.07,27.45,7.12,42.25,15.54c0.13,0.07,0.17,0.24,0.1,0.37
				C128.23,184.8,128.13,184.85,128.04,184.85z"/>
			<path class="st1" d="M128.01,184.17c-0.05,0-0.1-0.01-0.15-0.04c-14.2-9.28-39.79-18.36-40.05-18.45
				c-0.14-0.05-0.21-0.2-0.16-0.34c0.05-0.14,0.2-0.22,0.34-0.16c0.26,0.09,25.91,9.19,40.16,18.5c0.12,0.08,1.01,1.13,0.93,1.25
				C129.03,185.01,128.09,184.17,128.01,184.17z"/>
			<path class="st1" d="M85.49,189.45c-0.12,0-0.24-0.09-0.26-0.21c-0.03-0.14,0.06-0.29,0.21-0.32c0.26-0.06,26.31-5.66,43.56-3
				c0.15,0.02,0.25,0.16,0.22,0.31c-0.02,0.15-0.14,0.24-0.31,0.23c-17.14-2.65-43.1,2.93-43.36,2.99
				C85.53,189.45,85.51,189.45,85.49,189.45z"/>
			<path class="st1" d="M129.08,184.93c-0.03,0-0.06-0.01-0.09-0.02c-15.99-5.66-43.23-8.93-43.5-8.96
				c-0.15-0.02-0.25-0.15-0.24-0.3c0.02-0.15,0.16-0.27,0.3-0.24c0.27,0.03,27.57,3.31,43.62,8.99c0.14,0.05,0.21,0.2,0.16,0.34
				C129.29,184.86,129.19,184.93,129.08,184.93z"/>
			<path class="st1" d="M129.41,185.81c-0.02,0-0.04,0-0.07-0.01c-18.9-4.76-45.67-2.48-45.94-2.45c-0.15,0.02-0.28-0.1-0.29-0.24
				c-0.01-0.15,0.1-0.28,0.24-0.29c0.27-0.02,27.12-2.32,46.12,2.46c0.14,0.04,0.23,0.18,0.19,0.33
				C129.64,185.73,129.53,185.81,129.41,185.81z"/>
			<path class="st1" d="M87.26,197.71c-0.09,0-0.18-0.05-0.23-0.13c-0.08-0.13-0.04-0.29,0.09-0.37
				c0.22-0.14,22.39-13.71,42.7-10.71c0.15,0.02,0.25,0.16,0.23,0.3c-0.02,0.15-0.16,0.24-0.31,0.23
				c-20.07-2.96-42.12,10.49-42.34,10.63C87.36,197.7,87.31,197.71,87.26,197.71z"/>
		</g>
		<g>
			<path class="st1" d="M129.04,183.56c-0.09,0-0.17-0.04-0.23-0.12c-9.35-14.23-18.13-40.9-18.22-41.16
				c-0.05-0.14,0.03-0.29,0.17-0.34c0.13-0.05,0.29,0.03,0.34,0.17c0.09,0.27,8.84,26.87,18.16,41.04c0.08,0.12,0.05,0.29-0.08,0.37
				C129.14,183.54,129.09,183.56,129.04,183.56z"/>
			<path class="st1" d="M128.99,184.91c-0.08,0-0.79-1.39-0.84-1.46c-10.21-13.63-20.94-38.64-21.04-38.9
				c-0.06-0.14,0-0.29,0.14-0.35c0.14-0.06,0.29,0,0.35,0.14c0.11,0.25,10.81,25.21,20.98,38.78c0.09,0.12,0.48,1.2,0.36,1.29
				C128.9,184.46,129.05,184.91,128.99,184.91z"/>
			<path class="st1" d="M130.71,184.36c-0.12,0-0.24-0.09-0.26-0.21c-3.76-17.04,0.15-43.4,0.2-43.66c0.02-0.15,0.16-0.24,0.3-0.23
				c0.15,0.02,0.25,0.16,0.23,0.31c-0.04,0.26-3.94,26.53-0.2,43.46c0.03,0.14-0.06,0.29-0.2,0.32
				C130.74,184.36,130.72,184.36,130.71,184.36z"/>
			<path class="st1" d="M129.19,184.59c-0.1,0-0.2-0.06-0.25-0.16c-6.7-15.65-11.72-42.68-11.77-42.95
				c-0.03-0.15,0.07-0.29,0.22-0.31c0.14-0.02,0.28,0.07,0.31,0.22c0.05,0.27,5.06,27.24,11.73,42.84c0.06,0.14,0,0.29-0.14,0.35
				C129.26,184.58,129.23,184.59,129.19,184.59z"/>
			<path class="st1" d="M130.09,184.86c-0.11,0-0.22-0.07-0.25-0.19c-5.99-18.64-5.42-45.59-5.42-45.86c0-0.15,0.12-0.26,0.27-0.26
				c0,0,0,0,0.01,0c0.15,0,0.26,0.13,0.26,0.27c-0.01,0.27-0.57,27.13,5.39,45.69c0.05,0.14-0.03,0.29-0.17,0.34
				C130.14,184.85,130.12,184.86,130.09,184.86z"/>
			<path class="st1" d="M131.34,185.15c-0.12,0-0.24-0.09-0.26-0.21c-4.29-20.06,7.82-43.07,7.94-43.3
				c0.07-0.13,0.24-0.18,0.36-0.11c0.13,0.07,0.18,0.23,0.11,0.36c-0.12,0.23-12.14,23.07-7.89,42.94c0.03,0.14-0.06,0.29-0.21,0.32
				C131.38,185.15,131.36,185.15,131.34,185.15z"/>
		</g>
		<path class="st1" d="M131.54,186.7c0,0,9.96,8.88,13.28,7.93c0,0,1.74,0.03,1.01,1.7c-0.73,1.67-1.63,2.72-2.94,1.59
			c-1.31-1.13-9.36-7.2-11.72-10.57L131.54,186.7z"/>
	</g>
	<g>
		<path class="st10" d="M465.31,227.25c1.4-5.97,10.61-5.15,10.61-5.15c9.39-5.72,14.02-0.41,14.02-0.41
			c10.8-2.73,14.13,3.46,14.13,3.46c6.5,0.2,8.95,4.29,9.64,5.8c0.15,0.34,0.17,0.72,0.06,1.07c-0.74,2.29-3.71,11.57-3.66,13.27
			c0.06,1.93,1.5,1.65,1.5,1.65l13.02-3.26c0.56-0.14,1.15-0.03,1.62,0.31c0.96,0.71,2.53,2.46,4.22,6.74
			c2.6,6.58,0.3,10.15,0.3,10.15c7.11,7.53,2.98,15.03,2.98,15.03c1.72,4.91-1.22,8.02-1.22,8.02c0.45,3.13-1.12,7.05-3.9,7.25
			c-2.78,0.2-13.75-11.21-22.79-14.22c-9.04-3.01-22.12,0.65-22.12,0.65c0.7-21.31-9.85-35.38-12.01-38.83
			C469.54,235.35,463.91,233.21,465.31,227.25z"/>
		<g>
			<path class="st1" d="M486.54,273.46c0.06-0.01,0.58,0.48,0.63,0.43c20.49-19.96,37.36-25.44,37.53-25.49
				c0.14-0.04,0.23-0.19,0.19-0.33c-0.04-0.14-0.19-0.23-0.33-0.19C524.38,247.94,507.14,253.4,486.54,273.46
				c-0.11,0.1-0.32-0.19-0.22-0.08C486.38,273.44,486.46,273.47,486.54,273.46z"/>
			<path class="st1" d="M487.71,274.11c0.04,0,0.09-0.02,0.13-0.05c13.95-9.64,40.34-19.02,40.6-19.11c0.14-0.05,0.21-0.2,0.16-0.34
				c-0.05-0.14-0.21-0.21-0.34-0.16c-0.27,0.09-26.72,9.49-40.73,19.17c-0.12,0.08-0.15,0.25-0.07,0.37
				C487.52,274.07,487.62,274.11,487.71,274.11z"/>
			<path class="st1" d="M487.69,273.43c0.05,0,0.1-0.02,0.14-0.06c13.33-10.49,38.03-21.77,38.28-21.88
				c0.13-0.06,0.2-0.22,0.13-0.36c-0.06-0.14-0.22-0.2-0.36-0.13c-0.25,0.11-25.01,11.42-38.39,21.95
				c-0.12,0.09-0.91,1.21-0.81,1.33C486.74,274.35,487.6,273.44,487.69,273.43z"/>
			<path class="st1" d="M530.5,274.97c0.12-0.01,0.23-0.11,0.24-0.23c0.02-0.15-0.09-0.28-0.23-0.3c-0.27-0.03-26.7-3.34-43.65,0.82
				c-0.14,0.04-0.23,0.18-0.2,0.32c0.03,0.14,0.16,0.23,0.32,0.2c16.84-4.13,43.19-0.85,43.46-0.81
				C530.46,274.97,530.48,274.97,530.5,274.97z"/>
			<path class="st1" d="M486.68,274.28c0.03,0,0.06-0.01,0.09-0.02c15.44-7.03,42.28-12.68,42.55-12.73
				c0.15-0.03,0.24-0.17,0.21-0.32c-0.03-0.14-0.18-0.25-0.32-0.21c-0.27,0.06-27.17,5.71-42.67,12.77
				c-0.14,0.06-0.19,0.22-0.13,0.36C486.46,274.23,486.57,274.29,486.68,274.28z"/>
			<path class="st1" d="M486.43,275.19c0.02,0,0.04-0.01,0.07-0.01c18.41-6.4,45.28-6.46,45.55-6.46c0.15,0,0.27-0.12,0.27-0.27
				c0-0.15-0.12-0.27-0.27-0.27c-0.27,0-27.22,0.06-45.72,6.49c-0.14,0.05-0.21,0.2-0.16,0.34
				C486.2,275.12,486.31,275.2,486.43,275.19z"/>
			<path class="st1" d="M529.46,283.35c0.09-0.01,0.17-0.06,0.22-0.15c0.07-0.13,0.01-0.29-0.12-0.36
				c-0.23-0.12-23.51-11.7-43.47-6.93c-0.14,0.03-0.23,0.18-0.2,0.32c0.03,0.15,0.18,0.23,0.32,0.2c19.74-4.7,42.88,6.77,43.11,6.89
				C529.36,283.35,529.41,283.36,529.46,283.35z"/>
		</g>
		<g>
			<path class="st1" d="M486.6,272.91c0.09-0.01,0.17-0.06,0.21-0.14c8.07-14.99,14.48-42.33,14.55-42.6
				c0.03-0.14-0.06-0.29-0.2-0.32c-0.14-0.03-0.29,0.05-0.32,0.2c-0.06,0.27-6.46,27.54-14.5,42.47c-0.07,0.13-0.02,0.29,0.11,0.36
				C486.5,272.9,486.55,272.91,486.6,272.91z"/>
			<path class="st1" d="M486.77,274.26c0.08-0.01,0.66-1.45,0.71-1.52c8.98-14.47,17.48-40.33,17.56-40.59
				c0.05-0.14-0.03-0.29-0.17-0.34c-0.14-0.04-0.29,0.03-0.34,0.17c-0.09,0.26-8.56,26.06-17.51,40.47
				c-0.08,0.13-0.37,1.24-0.25,1.32C486.83,273.79,486.71,274.26,486.77,274.26z"/>
			<path class="st1" d="M485.01,273.86c0.12-0.01,0.23-0.11,0.24-0.23c2.26-17.3-3.95-43.22-4.01-43.48
				c-0.03-0.14-0.18-0.23-0.32-0.2c-0.14,0.04-0.23,0.18-0.2,0.32c0.06,0.26,6.25,26.08,4,43.28c-0.02,0.15,0.08,0.28,0.23,0.3
				C484.98,273.86,485,273.86,485.01,273.86z"/>
			<path class="st1" d="M486.54,273.95c0.1-0.01,0.2-0.08,0.23-0.18c5.3-16.18,7.94-43.54,7.97-43.82c0.01-0.15-0.09-0.28-0.24-0.29
				c-0.15-0.01-0.28,0.09-0.29,0.24c-0.03,0.27-2.66,27.58-7.94,43.7c-0.05,0.14,0.03,0.29,0.17,0.34
				C486.47,273.95,486.51,273.95,486.54,273.95z"/>
			<path class="st1" d="M485.67,274.3c0.11-0.01,0.21-0.09,0.24-0.21c4.34-19.1,1.42-45.89,1.39-46.16
				c-0.02-0.14-0.14-0.25-0.29-0.24c0,0,0,0-0.01,0c-0.15,0.02-0.25,0.15-0.24,0.3c0.03,0.27,2.94,26.97-1.38,45.98
				c-0.03,0.14,0.06,0.29,0.2,0.32C485.62,274.3,485.64,274.3,485.67,274.3z"/>
			<path class="st1" d="M484.45,274.7c0.12-0.01,0.23-0.11,0.24-0.23c2.52-20.36-11.56-42.22-11.7-42.44
				c-0.08-0.12-0.25-0.16-0.37-0.08c-0.12,0.08-0.16,0.25-0.08,0.37c0.14,0.22,14.11,21.92,11.62,42.08
				c-0.02,0.15,0.09,0.28,0.23,0.3C484.41,274.7,484.43,274.7,484.45,274.7z"/>
		</g>
		<path class="st1" d="M484.39,276.26c0,0-9.14,9.72-12.54,9.06c0,0-1.73,0.18-0.86,1.79s1.86,2.57,3.07,1.32
			c1.21-1.24,8.7-7.99,10.75-11.56L484.39,276.26z"/>
	</g>
	<path class="st1" d="M552.66,183c0,0-28.11-2.09-24.92,28.92C527.74,211.91,557.76,211.53,552.66,183z"/>
</g>
</svg>
